<svg width="64" height="64" viewBox="0 0 64 64" fill="none" xmlns="http://www.w3.org/2000/svg">
<rect width="64" height="64" rx="15" fill="black"/>
<path d="M25.3072 39.417C24.5067 38.8849 22.2386 37.8798 22.0385 38.1754C21.8383 38.471 22.0385 56.09 22.0385 56.09C22.0385 57.0653 21.2685 59.0736 21.8021 59.1743H26.3079C27.3846 59.1743 26.3079 56.6185 26.3079 56.09C26.3079 55.5615 26.3746 41.782 26.3079 41.1907C26.2412 40.5995 26.1078 39.9491 25.3072 39.417Z" fill="white" stroke="white" stroke-linecap="round"/>
<path d="M33.1095 39.417C32.309 38.8849 30.0409 37.8798 29.8407 38.1754C29.6405 38.471 29.8407 56.09 29.8407 56.09C29.8407 57.0653 29.0707 59.0736 29.6043 59.1743H34.1101C35.1869 59.1743 34.1101 56.6185 34.1101 56.09C34.1101 55.5615 34.1768 41.782 34.1101 41.1907C34.0434 40.5995 33.91 39.9491 33.1095 39.417Z" fill="white" stroke="white" stroke-linecap="round"/>
<path d="M41.4598 42.1889C40.6687 41.7332 38.4273 40.8726 38.2295 41.1258C38.0317 41.3789 38.2134 56.2135 38.2134 56.2135C38.2134 57.0486 37.4686 59.0194 37.9959 59.1056H42.4487C43.5127 59.1056 42.4487 56.666 42.4487 56.2135C42.4487 55.761 42.5146 44.2138 42.4487 43.7076C42.3827 43.2013 42.2509 42.6445 41.4598 42.1889Z" fill="white" stroke="white" stroke-linecap="round"/>
<path d="M49.5206 39.417C48.7201 38.8849 46.452 37.8798 46.2518 38.1754C46.0517 38.471 46.2519 56.09 46.2519 56.09C46.2519 57.0653 45.4818 59.0736 46.0155 59.1743H50.5213C51.598 59.1743 50.5213 56.6185 50.5213 56.09C50.5213 55.5615 50.588 41.782 50.5213 41.1907C50.4546 40.5995 50.3211 39.9491 49.5206 39.417Z" fill="white" stroke="white" stroke-linecap="round"/>
<path d="M26.7793 37.5156L28.4608 25.6779C28.4608 25.6779 38.0405 23.1156 43.1906 25.6779C47.0244 27.6957 48.7059 29.3099 49.9839 33.3455C51.06 37.7846 50.5219 40.2059 50.5219 41.2821C50.5219 42.3583 50.6565 42.6273 48.7059 42.6273C47.7643 42.8291 45.2084 41.8202 43.9978 41.2821C42.7871 40.744 40.702 39.9369 39.0205 39.1971C37.3391 38.4572 35.6107 37.478 34.5142 38.8608C33.854 39.6932 34.1779 40.0714 34.1106 41.5511C34.0433 43.0308 30.075 44.0397 29.6715 41.0131C28.9989 38.3899 26.7793 37.5156 26.7793 37.5156Z" fill="white" stroke="white" stroke-linecap="round"/>
<path d="M26.5102 6.64384H27.4519C27.7882 6.64384 26.3084 5.09692 25.8376 5.02961C25.3668 4.9623 25.1677 4.99301 24.7615 5.29865C25.3668 5.43317 26.3757 6.24029 26.5102 6.64384Z" fill="white"/>
<path d="M30.1422 7.65241C28.1323 7.59293 26.1067 7.65241 26.1067 7.65241L24.4924 17.0688C24.4924 17.0688 27.3173 16.3962 27.2501 15.4545C27.1156 14.9837 26.2412 14.8492 26.7793 14.1766C27.3173 13.504 28.1917 14.5129 28.1917 14.5129C28.1917 14.5129 29.6215 15.5877 30.6803 15.589C32.5748 15.5915 34.2868 14.4829 34.1106 12.1588C33.9343 9.83467 32.1521 7.7119 30.1422 7.65241Z" fill="white" stroke="white" stroke-linecap="round"/>
<path d="M35.6577 18.6836C29.2681 18.6836 28.4609 25.6786 28.4609 25.6786L42.989 25.5441C42.989 25.5441 42.0474 18.6836 35.6577 18.6836Z" fill="white" stroke="white" stroke-linecap="round"/>
<path d="M24.4253 17.1365C24.4253 17.1365 22.4747 18.9525 22.542 22.3827C22.7438 24.8713 23.9268 26.2408 25.9723 26.351C26.9925 26.406 28.4609 25.5439 28.4609 25.5439L26.7121 37.5161C26.7121 37.5161 21.8022 36.5072 19.5153 34.0186C17.1612 31.4628 15.9506 29.8485 15.4798 25.6784C15.0089 21.5083 15.4798 16.6881 15.4798 14.7824C15.4798 12.8767 15.7488 12.2265 16.5559 10.276L16.5559 10.276C16.916 9.40575 17.0217 8.99072 17.0284 8.79793L16.8922 8.66176C16.8922 8.66176 17.0366 8.5586 17.0284 8.79793L20.726 12.4956L25.1651 13.4372L24.4253 17.1365Z" fill="white"/>
<path d="M20.726 12.4956L16.8922 8.66176C16.8922 8.66176 17.363 8.32547 16.5559 10.276C15.7488 12.2265 15.4798 12.8767 15.4798 14.7824C15.4798 16.6881 15.0089 21.5083 15.4798 25.6784C15.9506 29.8485 17.1612 31.4628 19.5153 34.0186C21.8022 36.5072 26.7121 37.5161 26.7121 37.5161L28.4609 25.5439C28.4609 25.5439 26.9925 26.406 25.9723 26.351C23.9268 26.2408 22.7438 24.8713 22.542 22.3827C22.4747 18.9525 24.4253 17.1365 24.4253 17.1365L25.1651 13.4372L20.726 12.4956Z" stroke="white" stroke-linecap="round"/>
<ellipse cx="16.2868" cy="7.58516" rx="2.28683" ry="2.55586" fill="white"/>
<ellipse cx="21.8022" cy="10.209" rx="5.11173" ry="4.77543" fill="white"/>
</svg>
