<svg width="1391" height="334" viewBox="0 0 1391 334" fill="none" xmlns="http://www.w3.org/2000/svg">
<path d="M355.26 318.65C342.717 318.65 331.852 316.265 322.665 311.495C313.655 306.548 306.677 299.57 301.73 290.56C296.783 281.373 294.133 270.42 293.78 257.7C293.603 255.05 293.515 251.517 293.515 247.1C293.515 242.683 293.603 239.15 293.78 236.5C294.133 223.78 296.783 212.915 301.73 203.905C306.677 194.718 313.655 187.74 322.665 182.97C331.852 178.023 342.717 175.55 355.26 175.55C365.507 175.55 374.252 176.963 381.495 179.79C388.915 182.617 395.01 186.238 399.78 190.655C404.55 195.072 408.083 199.842 410.38 204.965C412.853 210.088 414.178 214.947 414.355 219.54C414.532 221.307 414.002 222.72 412.765 223.78C411.528 224.84 410.027 225.37 408.26 225.37H395.54C393.773 225.37 392.448 225.017 391.565 224.31C390.682 223.427 389.798 222.013 388.915 220.07C385.735 211.413 381.407 205.318 375.93 201.785C370.453 198.252 363.652 196.485 355.525 196.485C344.925 196.485 336.268 199.753 329.555 206.29C323.018 212.827 319.485 223.338 318.955 237.825C318.778 244.185 318.778 250.368 318.955 256.375C319.485 271.038 323.018 281.638 329.555 288.175C336.268 294.535 344.925 297.715 355.525 297.715C363.652 297.715 370.453 295.948 375.93 292.415C381.407 288.882 385.735 282.787 388.915 274.13C389.798 272.187 390.682 270.862 391.565 270.155C392.448 269.272 393.773 268.83 395.54 268.83H408.26C410.027 268.83 411.528 269.36 412.765 270.42C414.002 271.48 414.532 272.893 414.355 274.66C414.178 278.37 413.383 282.168 411.97 286.055C410.557 289.942 408.26 293.917 405.08 297.98C402.077 301.867 398.278 305.4 393.685 308.58C389.092 311.583 383.527 314.057 376.99 316C370.63 317.767 363.387 318.65 355.26 318.65ZM484.251 318.65C475.417 318.65 467.379 316.883 460.136 313.35C452.892 309.817 447.062 305.047 442.646 299.04C438.229 293.033 436.021 286.232 436.021 278.635C436.021 266.445 440.967 256.728 450.861 249.485C460.754 242.242 473.651 237.472 489.551 235.175L529.036 229.61V221.925C529.036 213.445 526.562 206.82 521.616 202.05C516.846 197.28 508.984 194.895 498.031 194.895C490.081 194.895 483.632 196.485 478.686 199.665C473.916 202.845 470.559 206.908 468.616 211.855C467.556 214.505 465.701 215.83 463.051 215.83H451.126C449.182 215.83 447.681 215.3 446.621 214.24C445.737 213.003 445.296 211.59 445.296 210C445.296 207.35 446.267 204.082 448.211 200.195C450.331 196.308 453.511 192.51 457.751 188.8C461.991 185.09 467.379 181.998 473.916 179.525C480.629 176.875 488.756 175.55 498.296 175.55C508.896 175.55 517.817 176.963 525.061 179.79C532.304 182.44 537.957 186.062 542.021 190.655C546.261 195.248 549.264 200.46 551.031 206.29C552.974 212.12 553.946 218.038 553.946 224.045V309.905C553.946 311.672 553.327 313.173 552.091 314.41C551.031 315.47 549.617 316 547.851 316H535.661C533.717 316 532.216 315.47 531.156 314.41C530.096 313.173 529.566 311.672 529.566 309.905V298.51C527.269 301.69 524.177 304.87 520.291 308.05C516.404 311.053 511.546 313.615 505.716 315.735C499.886 317.678 492.731 318.65 484.251 318.65ZM489.816 298.775C497.059 298.775 503.684 297.273 509.691 294.27C515.697 291.09 520.379 286.232 523.736 279.695C527.269 273.158 529.036 264.943 529.036 255.05V247.63L498.296 252.135C485.752 253.902 476.301 256.905 469.941 261.145C463.581 265.208 460.401 270.42 460.401 276.78C460.401 281.727 461.814 285.878 464.641 289.235C467.644 292.415 471.354 294.8 475.771 296.39C480.364 297.98 485.046 298.775 489.816 298.775ZM598.137 316C596.37 316 594.868 315.47 593.632 314.41C592.572 313.173 592.042 311.672 592.042 309.905V184.295C592.042 182.528 592.572 181.115 593.632 180.055C594.868 178.818 596.37 178.2 598.137 178.2H610.062C611.828 178.2 613.242 178.818 614.302 180.055C615.538 181.115 616.157 182.528 616.157 184.295V193.57C620.22 188.093 625.343 183.765 631.527 180.585C637.71 177.228 645.13 175.55 653.787 175.55C673.75 175.373 687.883 183.5 696.187 199.93C700.25 192.51 706.168 186.592 713.942 182.175C721.715 177.758 730.548 175.55 740.442 175.55C749.628 175.55 757.932 177.67 765.352 181.91C772.948 186.15 778.867 192.598 783.107 201.255C787.523 209.735 789.732 220.423 789.732 233.32V309.905C789.732 311.672 789.113 313.173 787.877 314.41C786.817 315.47 785.403 316 783.637 316H771.182C769.415 316 767.913 315.47 766.677 314.41C765.617 313.173 765.087 311.672 765.087 309.905V235.705C765.087 225.812 763.673 218.038 760.847 212.385C758.02 206.732 754.222 202.757 749.452 200.46C744.682 198.163 739.47 197.015 733.817 197.015C729.223 197.015 724.542 198.163 719.772 200.46C715.002 202.757 711.027 206.732 707.847 212.385C704.843 218.038 703.342 225.812 703.342 235.705V309.905C703.342 311.672 702.723 313.173 701.487 314.41C700.427 315.47 699.013 316 697.247 316H684.792C683.025 316 681.523 315.47 680.287 314.41C679.227 313.173 678.697 311.672 678.697 309.905V235.705C678.697 225.812 677.195 218.038 674.192 212.385C671.188 206.732 667.302 202.757 662.532 200.46C657.762 198.163 652.727 197.015 647.427 197.015C642.833 197.015 638.152 198.163 633.382 200.46C628.612 202.757 624.637 206.732 621.457 212.385C618.453 218.038 616.952 225.723 616.952 235.44V309.905C616.952 311.672 616.333 313.173 615.097 314.41C614.037 315.47 612.623 316 610.857 316H598.137ZM882.395 318.65C864.198 318.65 849.711 313.085 838.935 301.955C828.158 290.648 822.24 275.278 821.18 255.845C821.003 253.548 820.915 250.633 820.915 247.1C820.915 243.39 821.003 240.387 821.18 238.09C821.886 225.547 824.801 214.593 829.925 205.23C835.048 195.69 842.026 188.358 850.86 183.235C859.87 178.112 870.381 175.55 882.395 175.55C895.821 175.55 907.04 178.377 916.05 184.03C925.236 189.683 932.215 197.722 936.985 208.145C941.755 218.568 944.14 230.758 944.14 244.715V249.22C944.14 251.163 943.521 252.665 942.285 253.725C941.225 254.785 939.811 255.315 938.045 255.315H846.355C846.355 255.492 846.355 255.845 846.355 256.375C846.355 256.905 846.355 257.347 846.355 257.7C846.708 264.943 848.298 271.745 851.125 278.105C853.951 284.288 858.015 289.323 863.315 293.21C868.615 297.097 874.975 299.04 882.395 299.04C888.755 299.04 894.055 298.068 898.295 296.125C902.535 294.182 905.98 292.062 908.63 289.765C911.28 287.292 913.046 285.437 913.93 284.2C915.52 281.903 916.756 280.578 917.64 280.225C918.523 279.695 919.936 279.43 921.88 279.43H934.6C936.366 279.43 937.78 279.96 938.84 281.02C940.076 281.903 940.606 283.228 940.43 284.995C940.253 287.645 938.84 290.913 936.19 294.8C933.54 298.51 929.741 302.22 924.795 305.93C919.848 309.64 913.841 312.732 906.775 315.205C899.708 317.502 891.581 318.65 882.395 318.65ZM846.355 237.03H918.965V236.235C918.965 228.285 917.463 221.218 914.46 215.035C911.633 208.852 907.481 203.993 902.005 200.46C896.528 196.75 889.991 194.895 882.395 194.895C874.798 194.895 868.261 196.75 862.785 200.46C857.485 203.993 853.421 208.852 850.595 215.035C847.768 221.218 846.355 228.285 846.355 236.235V237.03ZM982.186 316C980.419 316 978.917 315.47 977.681 314.41C976.621 313.173 976.091 311.672 976.091 309.905V133.945C976.091 132.178 976.621 130.765 977.681 129.705C978.917 128.468 980.419 127.85 982.186 127.85H994.641C996.584 127.85 998.086 128.468 999.146 129.705C1000.21 130.765 1000.74 132.178 1000.74 133.945V309.905C1000.74 311.672 1000.21 313.173 999.146 314.41C998.086 315.47 996.584 316 994.641 316H982.186ZM1163.22 333.225C1160.93 333.225 1159.07 332.43 1157.66 330.84C1156.25 329.427 1155.1 328.19 1154.21 327.13L1143.35 312.29C1133.81 316.53 1122.77 318.65 1110.22 318.65C1095.03 318.65 1082.05 316.088 1071.27 310.965C1060.67 305.665 1052.37 297.627 1046.36 286.85C1040.53 275.897 1037.35 262.205 1036.82 245.775C1036.64 238.002 1036.55 230.582 1036.55 223.515C1036.55 216.272 1036.64 208.763 1036.82 200.99C1037.35 184.737 1040.71 171.222 1046.89 160.445C1053.07 149.492 1061.55 141.365 1072.33 136.065C1083.28 130.588 1095.91 127.85 1110.22 127.85C1124.71 127.85 1137.34 130.588 1148.12 136.065C1159.07 141.365 1167.64 149.492 1173.82 160.445C1180.01 171.222 1183.28 184.737 1183.63 200.99C1183.98 208.763 1184.16 216.272 1184.16 223.515C1184.16 230.582 1183.98 238.002 1183.63 245.775C1182.75 270.155 1176.39 288.263 1164.55 300.1L1182.04 325.01C1182.22 325.187 1182.39 325.452 1182.57 325.805C1182.75 326.335 1182.83 327.042 1182.83 327.925C1183.01 329.338 1182.57 330.575 1181.51 331.635C1180.45 332.695 1179.12 333.225 1177.53 333.225H1163.22ZM1110.22 296.125C1123.65 296.125 1134.69 292.062 1143.35 283.935C1152.01 275.808 1156.69 262.647 1157.39 244.45C1157.75 236.5 1157.92 229.433 1157.92 223.25C1157.92 216.89 1157.75 209.823 1157.39 202.05C1157.04 189.86 1154.74 179.967 1150.5 172.37C1146.44 164.773 1140.96 159.208 1134.07 155.675C1127.18 152.142 1119.23 150.375 1110.22 150.375C1101.57 150.375 1093.71 152.142 1086.64 155.675C1079.75 159.208 1074.27 164.773 1070.21 172.37C1066.15 179.967 1063.85 189.86 1063.32 202.05C1063.14 209.823 1063.05 216.89 1063.05 223.25C1063.05 229.433 1063.14 236.5 1063.32 244.45C1064.03 262.647 1068.71 275.808 1077.36 283.935C1086.02 292.062 1096.97 296.125 1110.22 296.125ZM1207.23 316C1205.82 316 1204.58 315.47 1203.52 314.41C1202.46 313.35 1201.93 312.113 1201.93 310.7C1201.93 309.817 1202.02 308.845 1202.2 307.785L1267.92 136.33C1268.62 134.563 1269.59 133.15 1270.83 132.09C1272.07 131.03 1273.92 130.5 1276.4 130.5H1294.42C1296.71 130.5 1298.48 131.03 1299.72 132.09C1301.13 133.15 1302.19 134.563 1302.9 136.33L1368.35 307.785C1368.7 308.845 1368.88 309.817 1368.88 310.7C1368.88 312.113 1368.35 313.35 1367.29 314.41C1366.23 315.47 1364.99 316 1363.58 316H1350.07C1347.95 316 1346.36 315.47 1345.3 314.41C1344.41 313.35 1343.79 312.378 1343.44 311.495L1328.87 273.865H1241.95L1227.37 311.495C1227.19 312.378 1226.58 313.35 1225.52 314.41C1224.46 315.47 1222.87 316 1220.75 316H1207.23ZM1249.63 251.075H1321.18L1285.41 157L1249.63 251.075Z" fill="black"/>
<path d="M66.5824 203.659C61.8686 200.526 48.513 194.608 47.3343 196.348C46.1556 198.089 47.3345 301.838 47.3345 301.838C47.3345 307.581 42.8001 319.407 45.9424 320H72.4747C78.815 320 72.4747 304.95 72.4747 301.838C72.4747 298.726 72.8675 217.586 72.4747 214.104C72.0819 210.622 71.2963 206.793 66.5824 203.659Z" fill="black" stroke="black" stroke-width="2" stroke-linecap="round"/>
<path d="M112.525 203.659C107.811 200.526 94.4559 194.608 93.2772 196.348C92.0984 198.089 93.2773 301.838 93.2773 301.838C93.2773 307.581 88.743 319.407 91.8852 320H118.418C124.758 320 118.418 304.95 118.418 301.838C118.418 298.726 118.81 217.586 118.418 214.104C118.025 210.622 117.239 206.793 112.525 203.659Z" fill="black" stroke="black" stroke-width="2" stroke-linecap="round"/>
<path d="M161.697 219.99C157.039 217.307 143.841 212.239 142.676 213.73C141.511 215.22 142.581 302.574 142.581 302.574C142.581 307.491 138.195 319.097 141.3 319.604H167.52C173.786 319.604 167.52 305.238 167.52 302.574C167.52 299.909 167.908 231.914 167.52 228.933C167.132 225.952 166.355 222.673 161.697 219.99Z" fill="black" stroke="black" stroke-width="2" stroke-linecap="round"/>
<path d="M209.163 203.659C204.449 200.526 191.094 194.608 189.915 196.348C188.736 198.089 189.915 301.838 189.915 301.838C189.915 307.581 185.381 319.407 188.523 320H215.056C221.396 320 215.056 304.95 215.056 301.838C215.056 298.726 215.448 217.586 215.056 214.104C214.663 210.622 213.877 206.793 209.163 203.659Z" fill="black" stroke="black" stroke-width="2" stroke-linecap="round"/>
<path d="M75.2507 192.47L85.1522 122.763C85.1522 122.763 141.562 107.675 171.889 122.763C194.464 134.645 204.365 144.151 211.89 167.914C218.227 194.054 215.059 208.312 215.059 214.649C215.059 220.986 215.851 222.57 204.365 222.57C198.821 223.758 183.77 217.817 176.641 214.649C169.512 211.48 157.235 206.728 147.333 202.371C137.432 198.014 127.254 192.248 120.797 200.391C116.91 205.293 118.817 207.52 118.421 216.233C118.025 224.946 94.6575 230.887 92.2812 213.064C88.3206 197.618 75.2507 192.47 75.2507 192.47Z" fill="black" stroke="black" stroke-width="2" stroke-linecap="round"/>
<path d="M73.6664 10.6797H79.2112C81.1915 10.6797 72.4782 1.57072 69.7058 1.17435C66.9334 0.777991 65.7607 0.958861 63.3689 2.75858C66.9334 3.55072 72.8742 8.3034 73.6664 10.6797Z" fill="black" stroke="black"/>
<path d="M95.0535 16.6205C83.2182 16.2703 71.29 16.6205 71.29 16.6205L61.7847 72.0685C61.7847 72.0685 78.4191 68.1079 78.023 62.5631C77.2309 59.7907 72.0822 58.9986 75.2506 55.0381C78.4191 51.0775 83.5678 57.0183 83.5678 57.0183C83.5678 57.0183 91.987 63.3472 98.2219 63.3553C109.377 63.3697 119.459 56.842 118.421 43.1563C117.383 29.4707 106.889 16.9708 95.0535 16.6205Z" fill="black" stroke="black" stroke-width="2" stroke-linecap="round"/>
<path d="M127.53 81.5732C89.9048 81.5732 85.1521 122.763 85.1521 122.763L170.7 121.971C170.7 121.971 165.156 81.5732 127.53 81.5732Z" fill="black" stroke="black" stroke-width="2" stroke-linecap="round"/>
<path d="M61.3888 72.465C61.3888 72.465 49.903 83.1585 50.2991 103.357C51.4872 118.012 58.4533 126.076 70.4981 126.725C76.5056 127.049 85.1522 121.972 85.1522 121.972L74.8547 192.47C74.8547 192.47 45.9424 186.529 32.4766 171.875C18.6145 156.825 11.4856 147.32 8.71315 122.764C5.94068 98.2087 8.7132 69.8247 8.71315 58.603C8.71311 47.3814 10.2974 43.5529 15.0499 32.0675L15.0501 32.0672C17.1705 26.9428 17.793 24.4989 17.8322 23.3637L17.0304 22.5618C17.0304 22.5618 17.8808 21.9544 17.8322 23.3637L39.6056 45.1371L65.7453 50.6818L61.3888 72.465Z" fill="black"/>
<path d="M39.6056 45.1371L17.0304 22.5618C17.0304 22.5618 19.8028 20.5816 15.0501 32.0672C10.2974 43.5528 8.71311 47.3813 8.71315 58.603C8.7132 69.8247 5.94068 98.2087 8.71315 122.764C11.4856 147.32 18.6145 156.825 32.4766 171.875C45.9424 186.529 74.8547 192.47 74.8547 192.47L85.1522 121.972C85.1522 121.972 76.5056 127.049 70.4981 126.725C58.4533 126.076 51.4872 118.012 50.2991 103.357C49.903 83.1585 61.3888 72.465 61.3888 72.465L65.7453 50.6818L39.6056 45.1371Z" stroke="black" stroke-width="2" stroke-linecap="round"/>
<ellipse cx="13.4659" cy="16.224" rx="13.4659" ry="15.0502" fill="black"/>
<ellipse cx="45.9426" cy="31.6708" rx="30.1003" ry="28.1201" fill="black"/>
</svg>
